PathFileType	4	(X/Y/Z)	D:\Share\Shared_Data\Ergonomics\Sit To Stand Pertubation\S0\Perturbed STS.trc
DataRate	CameraRate	NumFrames	NumMarkers	Units	OrigDataRate	OrigDataStartFrame	OrigNumFrames	
100	100	14	18	m	100	6183	181
Frame#	Time	R_Heel			R_ASIS			R_Pelvis			V_Sacral			L_Pelvis			L_ASIS			Clavical			R_Acromium			L_Acromium			Sternum			Torso			R_Thigh_Med			R_Thigh_Lat			R_Thigh			R_Shank_Med			R_Shank_Lat			R_Shank			R_Toe			
		X1	Y1	Z1	X2	Y2	Z2	X3	Y3	Z3	X4	Y4	Z4	X5	Y5	Z5	X6	Y6	Z6	X7	Y7	Z7	X8	Y8	Z8	X9	Y9	Z9	X10	Y10	Z10	X11	Y11	Z11	X12	Y12	Z12	X13	Y13	Z13	X14	Y14	Z14	X15	Y15	Z15	X16	Y16	Z16	X17	Y17	Z17	X18	Y18	Z18	

6183	18.17	0.15095964	0.039414154	0.14234718	0.013297037	0.7674668	0.13168793	-0.10592075	0.81061279	0.16986996	-0.23163489	0.81874536	-0.060416561	-0.082341278	0.77889569	-0.23622015	0.030500475	0.73310181	-0.1841382	0.29284256	0.99129016	-0.023325565	0.28223944	1.106004	0.099936676	0.28425241	1.1011228	-0.16903307	0.26008209	0.90284546	-0.044556084	0.27518018	0.95491913	-0.1405289	0.26182016	0.49191971	0.049621994	0.24586339	0.51643768	0.1822124	0.19553677	0.6564281	0.096617355	0.24784827	0.10135067	0.097746681	0.18992287	0.086480988	0.18652299	0.22632646	0.31400964	0.19942232	0.37455759	0.055024555	0.13737888
6184	18.18	0.15100826	0.039417606	0.1423376	0.017787109	0.76935486	0.13083031	-0.10084782	0.813966	0.16927864	-0.22685048	0.82327966	-0.06079361	-0.077653168	0.78179535	-0.23640863	0.034516762	0.73471503	-0.18400755	0.29857919	0.9918175	-0.023265072	0.28854178	1.1065657	0.099642723	0.29102084	1.1018345	-0.16861832	0.26535486	0.90359052	-0.044749481	0.28113489	0.95565192	-0.14018578	0.26332373	0.49171149	0.049461182	0.24786919	0.51632104	0.18198042	0.19858762	0.65664569	0.096118568	0.24808347	0.10122026	0.097643867	0.19011243	0.086499794	0.18647723	0.22731256	0.31394312	0.19928189	0.37470013	0.054942188	0.13735869
6185	18.19	0.15106088	0.039433514	0.14233588	0.02223373	0.77127344	0.13004239	-0.095856583	0.81721088	0.16875418	-0.2220981	0.82768768	-0.061144814	-0.072964188	0.78472516	-0.23657207	0.03858297	0.73648383	-0.18390109	0.30411459	0.99265356	-0.023244308	0.29454407	1.1073895	0.099332314	0.29745969	1.1028213	-0.16827383	0.27045746	0.90464484	-0.044963562	0.2868703	0.9566748	-0.13988045	0.26490527	0.49149884	0.049319935	0.25006541	0.51616779	0.18177437	0.20171365	0.65687445	0.095676414	0.24833368	0.10110223	0.097559593	0.19030711	0.086521622	0.18644122	0.22829369	0.31387833	0.19916551	0.37485791	0.054837353	0.13733516
6186	18.2	0.15112297	0.039467022	0.14235301	0.026627054	0.77322028	0.12934467	-0.090969048	0.82034851	0.16830463	-0.21739897	0.83196124	-0.061465984	-0.068291832	0.78768359	-0.23671104	0.042691597	0.73839838	-0.18381918	0.30943945	0.99378107	-0.023269579	0.3002215	1.1084519	0.099003494	0.30355942	1.104077	-0.16800888	0.27537692	0.90599054	-0.045202225	0.2923663	0.95797479	-0.13962373	0.2665773	0.49127136	0.049197197	0.25244435	0.51597949	0.18160326	0.20491539	0.65711682	0.095309303	0.24859558	0.10099123	0.097499374	0.19051401	0.086544121	0.18642519	0.22927626	0.31381439	0.19907518	0.37504895	0.054692535	0.1373096
6187	18.21	0.15120207	0.039525112	0.14239879	0.03096554	0.77520056	0.12875249	-0.086198051	0.82338727	0.16793518	-0.21276982	0.83609692	-0.061751568	-0.063650818	0.79066876	-0.23682393	0.046836426	0.74045215	-0.18375781	0.314548	0.99518298	-0.023344448	0.30555054	1.1097281	0.09865815	0.30931537	1.1055934	-0.16783122	0.28010278	0.90760876	-0.045468285	0.29760971	0.95953784	-0.13942459	0.26835608	0.49101816	0.049086266	0.25498422	0.51575854	0.18147246	0.20819696	0.65736774	0.095029251	0.24887068	0.10088178	0.097465599	0.19074313	0.086565742	0.1864353	0.23027823	0.31374991	0.19900598	0.37529947	0.054482693	0.13728352
6188	18.22	0.15130641	0.039615002	0.14247954	0.035254719	0.77722626	0.1282735	-0.081546486	0.82634204	0.16764832	-0.20822131	0.84009741	-0.061995083	-0.059053349	0.7936778	-0.23690794	0.051011909	0.74263757	-0.18370985	0.3194407	0.99684607	-0.023469028	0.31051224	1.1111985	0.098303276	0.31472635	1.1073623	-0.1677471	0.28463168	0.90948297	-0.045762905	0.30259479	0.96135132	-0.13929008	0.27025449	0.49072937	0.048974411	0.25764981	0.51550848	0.18138063	0.21156454	0.65761523	0.094838936	0.24916386	0.10076859	0.097455742	0.19100528	0.086586189	0.18647162	0.2313239	0.31368356	0.19894632	0.37563925	0.05417947	0.1372578
6189	18.23	0.15144316	0.039741901	0.14259607	0.039504166	0.77930817	0.12790891	-0.077007698	0.82923346	0.16744391	-0.20375616	0.84397321	-0.062190182	-0.054509636	0.79670679	-0.23696107	0.0552113	0.74494342	-0.18366507	0.32412408	0.99876501	-0.023640039	0.31509726	1.1128545	0.097951508	0.31979367	1.1093788	-0.16776057	0.28896982	0.91160223	-0.046084721	0.30732239	0.96340594	-0.13922523	0.27227408	0.4903985	0.048844509	0.26039594	0.51523505	0.18131827	0.21502527	0.6578443	0.094729088	0.24948109	0.10064662	0.097462151	0.19130969	0.086606613	0.18652779	0.23243681	0.31361453	0.19888037	0.37609521	0.053758224	0.13723389
6190	18.24	0.15161649	0.039906994	0.1427428	0.04372435	0.7814494	0.12765428	-0.072566811	0.83208716	0.16731993	-0.19936778	0.84774286	-0.062331478	-0.050028645	0.79975122	-0.23698349	0.059424675	0.7473537	-0.18360826	0.32860812	1.0009444	-0.023852011	0.31931119	1.1147031	0.097620407	0.32452081	1.111644	-0.16787283	0.29313263	0.91396381	-0.04642934	0.31179987	0.96569849	-0.13923373	0.27439929	0.49002469	0.04867775	0.26317236	0.51494775	0.18126588	0.21858476	0.65804126	0.094678329	0.24982704	0.10051136	0.097473709	0.19166132	0.086629311	0.18659317	0.23363341	0.31354236	0.19879155	0.37668304	0.05320615	0.13721611
6191	18.25	0.15182582	0.040106277	0.14290945	0.047923862	0.7836463	0.12749942	-0.068202721	0.83493231	0.16727353	-0.19504103	0.85143127	-0.062414806	-0.045618771	0.80280652	-0.23697765	0.063637882	0.74984723	-0.183521	0.33290433	1.0033976	-0.024098057	0.323177	1.1167672	0.097329613	0.32891333	1.114166	-0.16808122	0.29714246	0.91657263	-0.046789555	0.31604028	0.96823254	-0.13931819	0.27659549	0.48961383	0.048456146	0.26592963	0.51465704	0.18119087	0.22224289	0.65819702	0.094656158	0.25020239	0.10035957	0.097478653	0.19205833	0.086657074	0.18665605	0.23491927	0.31346826	0.198666	0.37739862	0.052529453	0.1372112
6192	18.26	0.1520648	0.040330826	0.14308391	0.052107986	0.78589319	0.12742801	-0.063891521	0.83779913	0.16730185	-0.190756	0.85506512	-0.062437332	-0.041287457	0.80586969	-0.23694797	0.067832695	0.75240619	-0.18339105	0.33702634	1.0061444	-0.02437052	0.32673438	1.119079	0.097097092	0.33297888	1.1169589	-0.16837915	0.30102408	0.91943951	-0.047156681	0.32006165	0.97101898	-0.13947983	0.27881192	0.48917819	0.048164467	0.26862497	0.51437134	0.1810527	0.22599014	0.65830957	0.094627762	0.25060141	0.10019064	0.097466942	0.19249046	0.086692657	0.18670665	0.23628748	0.3133949	0.1984948	0.37821268	0.051757408	0.13722372
6193	18.27	0.1523213	0.04056831	0.14325502	0.056278431	0.78818854	0.1274183	-0.059611179	0.84071442	0.16740181	-0.18649396	0.85866779	-0.062397827	-0.037040127	0.80893988	-0.23689946	0.071988808	0.75502313	-0.18321979	0.34098846	1.0092047	-0.024662626	0.33003412	1.1216738	0.096935745	0.33672726	1.1200387	-0.16875638	0.30480139	0.92257709	-0.047522484	0.32388614	0.97407233	-0.13971738	0.28098865	0.48873392	0.047791962	0.27122696	0.51409802	0.18081898	0.22980568	0.65838422	0.094559021	0.25101086	0.10000768	0.097431725	0.19293954	0.086738518	0.1867382	0.23771893	0.31332675	0.19827464	0.37907349	0.050940636	0.13725018
6194	18.28	0.15257918	0.040805668	0.14341437	0.060433872	0.79053644	0.1274455	-0.055345779	0.84369745	0.16756903	-0.18224309	0.86225568	-0.062297329	-0.032879421	0.81201752	-0.23683612	0.076087486	0.75769775	-0.18301614	0.34480347	1.0125924	-0.024970079	0.33312863	1.1245793	0.096851471	0.34017157	1.1234196	-0.16920021	0.3084938	0.92599536	-0.047881039	0.32753802	0.97740717	-0.14002586	0.28306708	0.48829865	0.047334225	0.27372031	0.5138432	0.18047534	0.23365733	0.65843231	0.094420807	0.25141182	0.099817154	0.097369652	0.19338408	0.086797287	0.18674796	0.23918425	0.31326868	0.19800801	0.37991721	0.050141876	0.13727745
6195	18.29	0.15282176	0.041031853	0.14355711	0.064570633	0.79294495	0.12748612	-0.051087891	0.84675708	0.16779674	-0.17800107	0.86583771	-0.062139317	-0.028805569	0.81510461	-0.236759	0.080114235	0.76043158	-0.18278735	0.34848163	1.0163125	-0.025291082	0.33606143	1.1278085	0.096842918	0.34332837	1.1271083	-0.16969637	0.31211417	0.92969885	-0.048229736	0.33104181	0.98103418	-0.14039627	0.28500195	0.48788901	0.046794724	0.27610648	0.51361115	0.18002365	0.23750333	0.65846875	0.094192062	0.25178435	0.099627174	0.097280663	0.19380569	0.086871864	0.18673766	0.24064751	0.31322519	0.19770305	0.38068414	0.049420376	0.13728764
6196	18.3	0.1530363	0.041239346	0.14368248	0.068681786	0.79542059	0.12752174	-0.046838367	0.84989178	0.16807536	-0.17377466	0.86941669	-0.061928822	-0.024818022	0.8182041	-0.23666586	0.084058556	0.76322626	-0.18253799	0.35203122	1.0203585	-0.025624737	0.33886182	1.1313584	0.096903191	0.34621689	1.1311021	-0.1702303	0.31566861	0.93368518	-0.048568714	0.33441986	0.98495648	-0.14081572	0.28677063	0.48751825	0.046185234	0.27840027	0.51340399	0.17947844	0.24129494	0.65850751	0.093862564	0.25211316	0.099444748	0.097167931	0.19419362	0.086963654	0.18671297	0.24207217	0.31319897	0.19737277	0.38133408	0.048816936	0.13726628
